HIERARCHY
ROOT hip
{
  OFFSET 0 0 0
  CHANNELS 6 Xposition Yposition Zposition Zrotation Yrotation Xrotation
  JOINT abdomen
  {
    OFFSET 0 20.6881 -0.73152
    CHANNELS 3 Zrotation Xrotation Yrotation
    JOINT chest
    {
      OFFSET 0 11.7043 -0.48768
      CHANNELS 3 Zrotation Xrotation Yrotation
      JOINT neck
      {
        OFFSET 0 22.1894 -2.19456
        CHANNELS 3 Zrotation Xrotation Yrotation
        JOINT head
        {
          OFFSET -0.24384 7.07133 1.2192
          CHANNELS 3 Zrotation Xrotation Yrotation
          JOINT leftEye
          {
            OFFSET 4.14528 8.04674 8.04672
            CHANNELS 3 Zrotation Xrotation Yrotation
            End Site
            {
              OFFSET 1 0 0
            }
          }
          JOINT rightEye
          {
            OFFSET -3.6576 8.04674 8.04672
            CHANNELS 3 Zrotation Xrotation Yrotation
            End Site
            {
              OFFSET 1 0 0
            }
          }
        }
      }
      JOINT rCollar
      {
        OFFSET -2.68224 19.2634 -4.8768
        CHANNELS 3 Zrotation Xrotation Yrotation
        JOINT rShldr
        {
          OFFSET -8.77824 -1.95073 1.46304
          CHANNELS 3 Zrotation Xrotation Yrotation
          JOINT rForeArm
          {
            OFFSET -28.1742 -1.7115 0.48768
            CHANNELS 3 Zrotation Xrotation Yrotation
            JOINT rHand
            {
              OFFSET -22.5879 0.773209 7.07136
              CHANNELS 3 Zrotation Xrotation Yrotation
              JOINT rThumb1
              {
                OFFSET -1.2192 -0.487915 3.41376
                CHANNELS 3 Zrotation Xrotation Yrotation
                JOINT rThumb2
                {
                  OFFSET -3.37035 -0.52449 3.41376
                  CHANNELS 3 Zrotation Xrotation Yrotation
                  End Site
                  {
                    OFFSET -1.78271 -1.18214 1.43049
                  }
                }
              }
              JOINT rIndex1
              {
                OFFSET -7.75947 0.938293 5.60832
                CHANNELS 3 Zrotation Xrotation Yrotation
                JOINT rIndex2
                {
                  OFFSET -2.54057 -0.884171 1.56538
                  CHANNELS 3 Zrotation Xrotation Yrotation
                  End Site
                  {
                    OFFSET -1.62519 -0.234802 1.16502
                  }
                }
              }
              JOINT rMid1
              {
                OFFSET -8.24714 1.18213 3.41376
                CHANNELS 3 Zrotation Xrotation Yrotation
                JOINT rMid2
                {
                  OFFSET -3.10165 -0.590103 1.0647
                  CHANNELS 3 Zrotation Xrotation Yrotation
                  End Site
                  {
                    OFFSET -2.48547 -0.328903 0.83742
                  }
                }
              }
              JOINT rRing1
              {
                OFFSET -8.82822 0.546677 1.51678
                CHANNELS 3 Zrotation Xrotation Yrotation
                JOINT rRing2
                {
                  OFFSET -2.60934 -0.819778 -0.0198488
                  CHANNELS 3 Zrotation Xrotation Yrotation
                  End Site
                  {
                    OFFSET -2.33842 -0.294052 0.168128
                  }
                }
              }
              JOINT rPinky1
              {
                OFFSET -8.27202 -0.0477905 -0.4584
                CHANNELS 3 Zrotation Xrotation Yrotation
                JOINT rPinky2
                {
                  OFFSET -1.82734 -0.647385 -0.700984
                  CHANNELS 3 Zrotation Xrotation Yrotation
                  End Site
                  {
                    OFFSET -1.69225 -0.51767 -0.607171
                  }
                }
              }
            }
          }
        }
      }
      JOINT lCollar
      {
        OFFSET 2.68224 19.2634 -4.8768
        CHANNELS 3 Zrotation Xrotation Yrotation
        JOINT lShldr
        {
          OFFSET 8.77824 -1.95073 1.46304
          CHANNELS 3 Zrotation Xrotation Yrotation
          JOINT lForeArm
          {
            OFFSET 28.1742 -1.7115 0.48768
            CHANNELS 3 Zrotation Xrotation Yrotation
            JOINT lHand
            {
              OFFSET 22.5879 0.773209 7.07136
              CHANNELS 3 Zrotation Xrotation Yrotation
              JOINT lThumb1
              {
                OFFSET 1.2192 -0.487915 3.41376
                CHANNELS 3 Zrotation Xrotation Yrotation
                JOINT lThumb2
                {
                  OFFSET 3.37035 -0.52449 3.41376
                  CHANNELS 3 Zrotation Xrotation Yrotation
                  End Site
                  {
                    OFFSET 1.78271 -1.18214 1.43049
                  }
                }
              }
              JOINT lIndex1
              {
                OFFSET 7.75947 0.938293 5.60832
                CHANNELS 3 Zrotation Xrotation Yrotation
                JOINT lIndex2
                {
                  OFFSET 2.54057 -0.884171 1.56538
                  CHANNELS 3 Zrotation Xrotation Yrotation
                  End Site
                  {
                    OFFSET 1.62519 -0.234802 1.16502
                  }
                }
              }
              JOINT lMid1
              {
                OFFSET 8.24714 1.18213 3.41376
                CHANNELS 3 Zrotation Xrotation Yrotation
                JOINT lMid2
                {
                  OFFSET 3.10165 -0.590103 1.0647
                  CHANNELS 3 Zrotation Xrotation Yrotation
                  End Site
                  {
                    OFFSET 2.48547 -0.328903 0.83742
                  }
                }
              }
              JOINT lRing1
              {
                OFFSET 8.82822 0.546677 1.51678
                CHANNELS 3 Zrotation Xrotation Yrotation
                JOINT lRing2
                {
                  OFFSET 2.60934 -0.819778 -0.0198488
                  CHANNELS 3 Zrotation Xrotation Yrotation
                  End Site
                  {
                    OFFSET 2.33842 -0.294052 0.168128
                  }
                }
              }
              JOINT lPinky1
              {
                OFFSET 8.27202 -0.0477905 -0.4584
                CHANNELS 3 Zrotation Xrotation Yrotation
                JOINT lPinky2
                {
                  OFFSET 1.82734 -0.647385 -0.700984
                  CHANNELS 3 Zrotation Xrotation Yrotation
                  End Site
                  {
                    OFFSET 1.69225 -0.51767 -0.607171
                  }
                }
              }
            }
          }
        }
      }
    }
  }
  JOINT rButtock
  {
    OFFSET -8.77824 4.35084 1.2192
    CHANNELS 3 Zrotation Xrotation Yrotation
    JOINT rThigh
    {
      OFFSET 0 -1.70687 -2.19456
      CHANNELS 3 Zrotation Xrotation Yrotation
      JOINT rShin
      {
        OFFSET 0 -36.8199 0.73152
        CHANNELS 3 Zrotation Xrotation Yrotation
        JOINT rFoot
        {
          OFFSET 0.73152 -45.1104 -5.12064
          CHANNELS 3 Zrotation Xrotation Yrotation
          End Site
          {
            OFFSET -1.1221 -3.69964 12.103
          }
        }
      }
    }
  }
  JOINT lButtock
  {
    OFFSET 8.77824 4.35084 1.2192
    CHANNELS 3 Zrotation Xrotation Yrotation
    JOINT lThigh
    {
      OFFSET 0 -1.70687 -2.19456
      CHANNELS 3 Zrotation Xrotation Yrotation
      JOINT lShin
      {
        OFFSET 0 -36.8199 0.73152
        CHANNELS 3 Zrotation Xrotation Yrotation
        JOINT lFoot
        {
          OFFSET -0.73152 -45.1104 -5.12064
          CHANNELS 3 Zrotation Xrotation Yrotation
          End Site
          {
            OFFSET 1.1221 -3.69964 12.103
          }
        }
      }
    }
  }
}
MOTION
Frames:	6
Frame Time:	0.00833333
49.1788 84.5501 67.6759 0.0 0.0 0.0 -0.735049 -0.00369203 -0.020696 -0.20266 -0.00499188 -0.0351134 -4.82811e-15 1.59028e-15 -7.45443e-17 -1.42255e-14 9.54166e-15 -2.40716e-16 -0.0 0.0 0.0 -0.0 0.0 0.0 -1.98934e-15 -1.78596e-17 1.98785e-16 -4.93365e-14 -3.23025e-16 -3.97569e-16 -8.61881e-13 2.51264e-13 6.36111e-15 -9.9031e-12 -3.02103e-13 -1.97194e-13 -2.33645e-11 -1.08567e-13 -3.84847e-13 -4.03668e-11 -1.87653e-13 -6.61555e-13 -2.33616e-11 -1.08934e-13 -3.94389e-13 7.73091 5.47488 0.417314 -2.33654e-11 -1.09431e-13 -3.84847e-13 2.90554 0.965183 0.102902 -2.33608e-11 -1.08934e-13 -3.88823e-13 10.2786 0.731801 0.0259123 -2.33719e-11 -1.03368e-13 -3.81667e-13 2.22167 -0.733487 -0.20892 -2.38408e-15 -1.53359e-17 -1.98785e-16 -4.96901e-14 -4.41053e-16 -1.78906e-15 -8.66105e-13 -2.68359e-13 -2.22639e-14 -9.90694e-12 2.11532e-13 -1.36764e-13 -2.33691e-11 -1.19609e-13 -3.84847e-13 -4.03394e-11 -2.06736e-13 -6.75868e-13 -2.33731e-11 -1.21259e-13 -3.78486e-13 -7.73091 5.47488 -0.417314 -2.33669e-11 -1.20265e-13 -3.84847e-13 -2.90554 0.965183 -0.102902 -2.33689e-11 -1.19867e-13 -3.85642e-13 -10.2786 0.731801 -0.0259123 -2.33594e-11 -1.15295e-13 -3.97569e-13 -2.22167 -0.733487 0.20892 -2.03217e-16 0.0 -3.88251e-19 -0.0341163 -2.13129 -0.0183705 -0.00890185 -1.69205 -0.0750836 -0.522658 3.82302 0.138277 2.03217e-16 0.0 3.88251e-19 -1.08363 -4.91187 0.0910333 0.00129268 3.34449 -0.00264435 0.531447 1.56719 -0.0928738
48.4256 82.585 60.898 -177.814 -12.2106 -169.517 -1.90884 0.469746 0.378522 0.459713 0.35655 0.0438148 -3.7424 -0.47987 -2.03487 3.85693 -1.34248 -2.77944 -0.0 0.0 0.0 -0.0 0.0 0.0 -2.66301e-14 7.96018e-14 2.05978e-13 21.9619 5.34461 1.1806 -4.42441 -2.0525 6.8645 0.0015717 -0.884383 -0.12424 -5.30504e-10 1.45691e-09 9.23044e-11 -9.19783e-10 2.5223e-09 1.61079e-10 -5.30502e-10 1.45691e-09 9.22948e-11 7.73091 5.47488 0.417314 -5.30506e-10 1.45691e-09 9.23042e-11 2.90554 0.965183 0.102902 -5.30501e-10 1.45691e-09 9.23014e-11 10.2786 0.731801 0.0259123 -5.3051e-10 1.45692e-09 9.23086e-11 2.22167 -0.733487 -0.20892 -2.68913e-14 7.96007e-14 2.05638e-13 -21.5239 6.82823 -0.79558 4.07602 -1.82432 -6.39609 -0.00715678 1.87739 -0.263339 -8.49661e-10 -8.22218e-10 1.06162e-09 -1.46148e-09 -1.42069e-09 1.84138e-09 -8.49673e-10 -8.22223e-10 1.06162e-09 -7.73091 5.47488 -0.417314 -8.49668e-10 -8.22222e-10 1.06162e-09 -2.90554 0.965183 -0.102902 -8.49671e-10 -8.22222e-10 1.06162e-09 -10.2786 0.731801 -0.0259123 -8.49656e-10 -8.22217e-10 1.06161e-09 -2.22167 -0.733487 0.20892 -2.03217e-16 0.0 -3.88251e-19 -1.08219 -6.31054 -0.0244227 -0.0133275 12.1285 0.100357 -0.372843 3.0547 3.4916 2.03217e-16 0.0 3.88251e-19 -0.980202 -11.3359 2.688 0.0224681 8.4467 0.0210381 0.423545 0.464935 -1.87051
48.1611 82.5865 60.527 -177.969 -11.8805 -169.631 -3.14253 0.955153 0.811639 1.15622 0.738796 0.131039 -7.73422 -0.971189 -4.192 7.7985 -2.76501 -5.73551 -0.0 0.0 0.0 -0.0 0.0 0.0 -5.43731e-14 1.68565e-13 4.36829e-13 44.9418 10.9608 2.44611 -8.55886 -4.11502 14.1311 -0.000940373 -1.80848 -0.254159 -1.10359e-09 3.08975e-09 1.99847e-10 -1.91353e-09 5.34919e-09 3.48673e-10 -1.10359e-09 3.08975e-09 1.99837e-10 7.73091 5.47488 0.417314 -1.10359e-09 3.08975e-09 1.99846e-10 2.90554 0.965183 0.102902 -1.10358e-09 3.08975e-09 1.99845e-10 10.2786 0.731801 0.0259123 -1.10359e-09 3.08975e-09 1.99852e-10 2.22167 -0.733487 -0.20892 -5.44899e-14 1.6856e-13 4.36553e-13 -44.0828 14.0259 -1.65847 7.94343 -3.67596 -13.1758 0.00407226 3.85609 -0.541848 -1.77494e-09 -1.74146e-09 2.24405e-09 -3.05289e-09 -3.00901e-09 3.89234e-09 -1.77496e-09 -1.74147e-09 2.24405e-09 -7.73091 5.47488 -0.417314 -1.77496e-09 -1.74147e-09 2.24405e-09 -2.90554 0.965183 -0.102902 -1.77496e-09 -1.74147e-09 2.24405e-09 -10.2786 0.731801 -0.0259123 -1.77494e-09 -1.74146e-09 2.24405e-09 -2.22167 -0.733487 0.20892 -2.03217e-16 0.0 -3.88251e-19 -2.16365 -10.6804 0.00105442 -0.118058 26.6549 0.313393 -0.118822 2.25956 7.08478 2.03217e-16 0.0 3.88251e-19 -0.193594 -18.0997 5.5945 0.0402828 13.8405 0.0470004 0.235445 -0.675319 -3.76235
47.8517 82.5281 60.2342 -178.329 -11.6196 -169.604 -4.27623 1.41635 1.17728 1.78147 1.07963 0.201704 -11.3293 -1.43235 -6.10632 11.1808 -3.98951 -8.35641 -0.0 0.0 0.0 -0.0 0.0 0.0 -7.59116e-14 2.38841e-13 6.17537e-13 65.2028 16.006 3.66882 -11.8267 -5.80473 20.6912 -0.00680143 -2.6531 -0.373074 -1.54478e-09 4.37095e-09 2.77683e-10 -2.67862e-09 7.56727e-09 4.84559e-10 -1.54478e-09 4.37095e-09 2.77673e-10 7.73091 5.47488 0.417314 -1.54479e-09 4.37095e-09 2.77682e-10 2.90554 0.965183 0.102902 -1.54478e-09 4.37095e-09 2.77682e-10 10.2786 0.731801 0.0259123 -1.54478e-09 4.37095e-09 2.77689e-10 2.22167 -0.733487 -0.20892 -7.59058e-14 2.38833e-13 6.17313e-13 -63.9704 20.4683 -2.52961 11.0273 -5.20069 -19.2609 0.0305143 5.6317 -0.793424 -2.50225e-09 -2.46642e-09 3.18563e-09 -4.30376e-09 -4.26167e-09 5.52549e-09 -2.50227e-09 -2.46643e-09 3.18563e-09 -7.73091 5.47488 -0.417314 -2.50227e-09 -2.46643e-09 3.18563e-09 -2.90554 0.965183 -0.102902 -2.50228e-09 -2.46643e-09 3.18563e-09 -10.2786 0.731801 -0.0259123 -2.50225e-09 -2.46642e-09 3.18563e-09 -2.22167 -0.733487 0.20892 -2.03217e-16 0.0 -3.88251e-19 -3.18112 -14.669 -0.0373251 -0.333254 39.7683 0.578239 0.195761 1.51084 10.1875 2.03217e-16 0.0 3.88251e-19 1.11647 -23.9867 8.46051 0.0515441 18.6511 0.0714624 0.00280624 -1.73104 -5.42815
47.5644 82.4409 59.9133 -178.559 -11.4002 -169.726 -5.14601 1.81731 1.37394 2.23094 1.31693 0.230938 -13.8646 -1.82464 -7.41218 13.4489 -4.75671 -10.1211 -0.0 0.0 0.0 -0.0 0.0 0.0 -8.1939e-14 2.62401e-13 6.72886e-13 79.134 19.6479 4.67126 -13.9205 -6.89047 25.3943 -0.013367 -3.29904 -0.464168 -1.65627e-09 4.77306e-09 2.81253e-10 -2.87206e-09 8.26337e-09 4.91175e-10 -1.65627e-09 4.77306e-09 2.81244e-10 7.73091 5.47488 0.417314 -1.65628e-09 4.77306e-09 2.81253e-10 2.90554 0.965183 0.102902 -1.65627e-09 4.77307e-09 2.81253e-10 10.2786 0.731801 0.0259123 -1.65627e-09 4.77307e-09 2.8126e-10 2.22167 -0.733487 -0.20892 -8.18649e-14 2.62391e-13 6.72687e-13 -77.5914 25.0363 -3.29481 12.9886 -6.1666 -23.5404 0.0587514 6.90005 -0.974502 -2.73461e-09 -2.70566e-09 3.52509e-09 -4.70325e-09 -4.67518e-09 6.11414e-09 -2.73465e-09 -2.70567e-09 3.52509e-09 -7.73091 5.47488 -0.417314 -2.73464e-09 -2.70567e-09 3.52509e-09 -2.90554 0.965183 -0.102902 -2.73465e-09 -2.70568e-09 3.52509e-09 -10.2786 0.731801 -0.0259123 -2.73462e-09 -2.70567e-09 3.52509e-09 -2.22167 -0.733487 0.20892 -2.03217e-16 0.0 -3.88251e-19 -4.06142 -17.7047 -0.240797 -0.608787 49.3506 0.867053 0.476985 0.87718 12.0705 2.03217e-16 0.0 3.88251e-19 2.34796 -27.8607 10.7039 0.0560289 22.0041 0.0894162 -0.201015 -2.58428 -6.52574
47.2476 82.3762 59.5712 -178.995 -11.1747 -169.838 -5.65971 2.14747 1.32744 2.46064 1.41118 0.199488 -14.9049 -2.14687 -7.86576 14.2772 -4.88753 -10.6673 -0.0 0.0 0.0 -0.0 0.0 0.0 -6.18695e-14 1.92416e-13 5.21652e-13 84.3903 21.3773 5.29119 -14.7844 -7.35696 27.4455 -0.0174776 -3.65721 -0.514738 -1.18603e-09 3.59205e-09 2.23119e-10 -2.05698e-09 6.2188e-09 3.89638e-10 -1.18603e-09 3.59205e-09 2.2311e-10 7.73091 5.47488 0.417314 -1.18603e-09 3.59205e-09 2.2312e-10 2.90554 0.965183 0.102902 -1.18602e-09 3.59205e-09 2.2312e-10 10.2786 0.731801 0.0259123 -1.18603e-09 3.59205e-09 2.23124e-10 2.22167 -0.733487 -0.20892 -6.18065e-14 1.92409e-13 5.21432e-13 -82.6731 27.0254 -3.80638 13.7317 -6.53018 -25.2568 0.0730803 7.45098 -1.05356 -2.11879e-09 -2.24431e-09 2.80385e-09 -3.64412e-09 -3.879e-09 4.86311e-09 -2.11881e-09 -2.24432e-09 2.80385e-09 -7.73091 5.47488 -0.417314 -2.11881e-09 -2.24432e-09 2.80385e-09 -2.90554 0.965183 -0.102902 -2.11882e-09 -2.24432e-09 2.80385e-09 -10.2786 0.731801 -0.0259123 -2.11879e-09 -2.24432e-09 2.80385e-09 -2.22167 -0.733487 0.20892 -2.03217e-16 0.0 -3.88251e-19 -4.79207 -19.4114 -0.678702 -0.801638 54.0494 1.06314 0.633043 0.403005 12.3464 2.03217e-16 0.0 3.88251e-19 2.74138 -29.0277 11.7141 0.0556773 23.3001 0.0970168 -0.300747 -3.17324 -6.81051
